Coordinates
version=1
nRows=16
nColumns=40
inDegrees=yes

Units are S.I. units (second, meters, Newtons, ...)
Angles are in degrees.

endheader
time	pelvis_tilt	pelvis_list	pelvis_rotation	pelvis_tx	pelvis_ty	pelvis_tz	hip_flexion_r	hip_adduction_r	hip_rotation_r	knee_angle_r	knee_angle_r_beta	ankle_angle_r	subtalar_angle_r	mtp_angle_r	hip_flexion_l	hip_adduction_l	hip_rotation_l	knee_angle_l	knee_angle_l_beta	ankle_angle_l	subtalar_angle_l	mtp_angle_l	lumbar_extension	lumbar_bending	lumbar_rotation	arm_flex_r	arm_add_r	arm_rot_r	elbow_flex_r	pro_sup_r	wrist_flex_r	wrist_dev_r	arm_flex_l	arm_add_l	arm_rot_l	elbow_flex_l	pro_sup_l	wrist_flex_l	wrist_dev_l
     31.09750000	     -3.28698505	     -3.66775536	     -1.45698563	      0.93750107	      0.93620697	      0.44032225	     33.93620473	     -5.50141587	     -6.53514277	     57.71944669	     57.71944669	     -1.07458267	    -16.81824439	      1.63037877	      9.44962696	     -1.79436040	     -7.87637108	     17.45356421	     17.45356421	     14.03422196	     -9.71849133	      1.35126223	     -9.33532438	      6.72238462	      2.85255886	     -4.55121088	    -11.32499381	     -5.92025046	     22.24508640	     46.61116416	      0.00000000	      0.00000000	     14.61908569	    -14.72033570	     -0.75905366	     61.70393575	     46.22577112	      0.00000000	      0.00000000
     31.10957143	     -3.34406316	     -3.64540723	     -1.58728041	      0.93660910	      0.93619450	      0.44011451	     34.04420533	     -5.32682306	     -6.91825634	     54.55426016	     54.55426016	     -0.64190244	    -16.54647527	      1.79879779	      8.70801812	     -1.73044947	     -8.13019138	     16.82446609	     16.82446609	     14.25194752	     -9.28780899	      1.14764235	     -9.37093912	      6.69233892	      2.99682773	     -5.91845991	    -11.32662811	     -5.76278369	     21.93005199	     46.60248397	      0.00000000	      0.00000000	     15.72755256	    -14.77318332	     -1.38886551	     63.23612439	     46.32067257	      0.00000000	      0.00000000
     31.12164286	     -3.44699007	     -3.68880349	     -1.69379783	      0.93566479	      0.93599452	      0.44001513	     34.02134256	     -5.07337934	     -7.40202641	     51.07569866	     51.07569866	     -0.24026891	    -16.04706397	      1.97963881	      8.09695194	     -1.74947469	     -8.32945362	     16.34465954	     16.34465954	     14.51585004	     -8.92670275	      0.92776050	     -9.33292364	      6.75724950	      2.95062965	     -7.12952687	    -11.37209050	     -5.71463503	     21.76719369	     46.59533383	      0.00000000	      0.00000000	     16.69389629	    -14.90208081	     -1.88770983	     64.55278356	     46.39247107	      0.00000000	      0.00000000
     31.13371429	     -3.57992704	     -3.70430373	     -1.77536193	      0.93474407	      0.93561898	      0.44012007	     33.90674666	     -4.77954714	     -7.80466685	     47.40290387	     47.40290387	      0.16165800	    -15.29118062	      2.07888402	      7.54282466	     -1.75593902	     -8.53442084	     15.90275992	     15.90275992	     14.77064618	     -8.50566444	      0.65514036	     -9.26027941	      6.72893973	      2.94817478	     -8.32475828	    -11.37444600	     -5.69778856	     21.71544996	     46.58504681	      0.00000000	      0.00000000	     17.65990633	    -15.04899213	     -2.43297262	     65.99042230	     46.46791739	      0.00000000	      0.00000000
     31.14578571	     -3.64239275	     -3.63679728	     -1.90356692	      0.93392721	      0.93509953	      0.44035663	     33.58100922	     -4.51729447	     -8.12789463	     43.52171620	     43.52171620	      0.22615562	    -14.32144722	      1.09398743	      6.87955908	     -1.74355653	     -9.17207993	     15.43149687	     15.43149687	     14.96395667	     -7.50714884	     -0.25060413	     -9.38731612	      6.58904857	      2.91280103	     -9.83445566	    -11.42658817	     -5.70340849	     22.92247899	     46.51884760	      0.00000000	      0.00000000	     17.97468127	    -15.00313834	     -3.90975506	     69.19662791	     46.65788361	      0.00000000	      0.00000000
     31.15785714	     -3.80636316	     -3.66880903	     -1.96188814	      0.93307975	      0.93440337	      0.44070609	     33.21812615	     -4.11716534	     -8.50988220	     39.49945478	     39.49945478	      0.51903353	    -13.02443343	      1.28359865	      6.45352566	     -1.77585847	     -9.25213146	     15.17543616	     15.17543616	     15.25719497	     -7.35752567	     -0.49134730	     -9.23843275	      6.59234737	      2.72784212	    -10.69887299	    -11.45828752	     -5.68038677	     22.87665900	     46.51096746	      0.00000000	      0.00000000	     18.87568794	    -15.27237174	     -4.29036459	     70.09900115	     46.71068903	      0.00000000	      0.00000000
     31.16992857	     -3.82200179	     -3.65181213	     -2.04129146	      0.93247130	      0.93377320	      0.44123398	     32.56353325	     -3.75673887	     -8.93923120	     35.41384565	     35.41384565	      0.81529578	    -11.17615843	      1.22291905	      5.77292626	     -1.77821719	     -9.53059749	     14.79002462	     14.79002462	     15.55157527	     -6.85669234	     -0.91051673	     -9.31559180	      6.46001909	      2.79320549	    -11.68312525	    -11.50049497	     -5.68893423	     23.07965617	     46.49352212	      0.00000000	      0.00000000	     19.67645644	    -15.27586263	     -4.84637936	     71.61177456	     46.78923188	      0.00000000	      0.00000000
     31.18200000	     -3.88779455	     -3.61951403	     -2.08434214	      0.93199607	      0.93294797	      0.44173356	     31.86979605	     -3.39299530	     -9.36155477	     31.34693531	     31.34693531	      0.92310325	     -9.20594550	      1.44252562	      5.17438400	     -1.76191854	     -9.77617243	     14.46186232	     14.46186232	     15.87508117	     -6.39917467	     -1.33480145	     -9.25204061	      6.41829044	      2.71514578	    -12.55971370	    -11.54521594	     -5.73919167	     23.28187133	     46.48040673	      0.00000000	      0.00000000	     20.35460355	    -15.30976504	     -5.29458431	     72.91075294	     46.85377909	      0.00000000	      0.00000000
     31.19407143	     -3.89352825	     -3.47529222	     -2.17183277	      0.93181602	      0.93197028	      0.44247415	     31.09490796	     -3.17212375	     -9.97015861	     27.54766906	     27.54766906	      1.11021802	     -6.60349941	      1.40510283	      4.44430966	     -1.68187306	    -10.39981493	     14.06062041	     14.06062041	     16.10491601	     -5.38046541	     -2.27488692	     -9.32667241	      6.12718397	      2.54061450	    -13.49621832	    -11.57506789	     -5.92995400	     24.42242003	     46.43724008	      0.00000000	      0.00000000	     20.58293332	    -15.34120088	     -6.32935866	     75.21066217	     46.99441406	      0.00000000	      0.00000000
     31.20614286	     -3.94785091	     -3.40901984	     -2.22333601	      0.93168243	      0.93089287	      0.44337941	     30.30157131	     -2.72903863	    -10.28697535	     23.87490116	     23.87490116	      1.08902489	     -4.77165156	      2.12618075	      3.85252320	     -1.64116075	    -10.52813676	     13.81283192	     13.81283192	     16.44308779	     -5.14417849	     -2.60050590	     -9.23316041	      5.96196119	      2.44849152	    -14.00461174	    -11.57535487	     -5.96400153	     24.49652577	     46.43203638	      0.00000000	      0.00000000	     21.21295241	    -15.45000158	     -6.57727513	     76.01235881	     47.03770044	      0.00000000	      0.00000000
     31.21821429	     -3.85620573	     -3.22429024	     -2.29317754	      0.93196549	      0.92982779	      0.44430898	     29.47976953	     -2.55986763	    -11.04347338	     20.89078819	     20.89078819	      1.45996725	     -2.11448812	      3.34963638	      2.98040289	     -1.49981883	    -11.05125862	     13.39769415	     13.39769415	     16.73499926	     -4.25243215	     -3.32542174	     -9.29606978	      5.66394456	      2.34621049	    -14.55360389	    -11.59973740	     -6.14736512	     25.08695643	     46.41650991	      0.00000000	      0.00000000	     21.53129739	    -15.49751384	     -7.11133223	     77.49608890	     47.12987171	      0.00000000	      0.00000000
     31.23028571	     -3.75817320	     -3.16567085	     -2.30667065	      0.93241705	      0.92878164	      0.44533837	     28.57547991	     -2.17554735	    -11.57941207	     18.13608401	     18.13608401	      1.48559944	     -0.36798048	      4.42867828	      2.14780473	     -1.47233619	    -11.23305350	     13.08726614	     13.08726614	     17.11238430	     -3.79844446	     -3.68795741	     -9.30251112	      5.54622619	      2.25129747	    -14.93235554	    -11.70176015	     -6.23758515	     25.20921571	     46.41550636	      0.00000000	      0.00000000	     21.93277468	    -15.52089448	     -7.28313334	     78.25355920	     47.16885033	      0.00000000	      0.00000000
     31.24235714	     -3.80047284	     -2.93707971	     -2.41594756	      0.93292686	      0.92741366	      0.44667123	     28.15033410	     -2.04043559	    -12.27692499	     16.40586718	     16.40586718	      1.98333536	      1.56500329	      6.57533329	      1.49075336	     -1.33474434	    -11.83445621	     12.84363743	     12.84363743	     17.46083225	     -2.89017166	     -4.28687852	     -9.15439507	      5.14108425	      2.08649345	    -15.03183295	    -11.59521927	     -6.49477050	     25.74594508	     46.41277470	      0.00000000	      0.00000000	     22.03708269	    -15.68175692	     -7.68866577	     79.41787393	     47.26334859	      0.00000000	      0.00000000
     31.25442857	     -3.76858872	     -2.81914277	     -2.45533443	      0.93369580	      0.92620091	      0.44807309	     27.53827251	     -1.74619738	    -12.72200209	     14.86364390	     14.86364390	      1.84571471	      2.50166201	      7.15561653	      0.71953878	     -1.26338650	    -11.98367011	     12.55569093	     12.55569093	     17.83321209	     -2.51510509	     -4.43611177	     -9.03197345	      4.90699573	      2.06919617	    -15.01467503	    -11.55215470	     -6.52664335	     25.77759799	     46.41428004	      0.00000000	      0.00000000	     22.33040619	    -15.68598120	     -7.71408522	     79.77438323	     47.28418536	      0.00000000	      0.00000000
     31.26650000	     -3.71766932	     -2.69164576	     -2.49487146	      0.93464822	      0.92499521	      0.44960391	     27.03428998	     -1.55276008	    -13.32551229	     13.97930808	     13.97930808	      1.76635712	      3.44468220	      7.46525959	     -0.06603425	     -1.22631554	    -12.36598883	     12.31818193	     12.31818193	     18.27373073	     -1.76975046	     -4.58766570	     -8.91380670	      4.65568513	      1.98917807	    -14.85037906	    -11.51065010	     -6.60235477	     25.88510298	     46.41753026	      0.00000000	      0.00000000	     22.45694766	    -15.74070098	     -7.73688086	     80.23474123	     47.31367222	      0.00000000	      0.00000000
     31.27857143	     -3.74136594	     -2.61586329	     -2.50141975	      0.93567888	      0.92375047	      0.45125360	     26.64360824	     -1.31762550	    -13.68953665	     13.49334584	     13.49334584	      1.56881361	      3.77241312	      7.45927805	     -0.71105482	     -1.25292026	    -12.51866065	     12.19121651	     12.19121651	     18.67306893	     -1.34623074	     -4.66212476	     -8.69514253	      4.46784683	      1.91754679	    -14.57148628	    -11.46011450	     -6.62738124	     26.00269450	     46.41705926	      0.00000000	      0.00000000	     22.51366575	    -15.75524566	     -7.70705052	     80.41430884	     47.32360191	      0.00000000	      0.00000000
